<svg xmlns="http://www.w3.org/2000/svg" xmlns:xlink="http://www.w3.org/1999/xlink" width="1080" zoomAndPan="magnify" viewBox="0 0 810 1012.49997" height="1350" preserveAspectRatio="xMidYMid meet" version="1.0"><defs><clipPath id="05f1945d38"><path d="M 0.199219 0 L 809.800781 0 L 809.800781 1012 L 0.199219 1012 Z M 0.199219 0 " clip-rule="nonzero"/></clipPath><linearGradient x1="-67.5" gradientTransform="matrix(0.74963, 0, 0, 0.74963, 0.199913, 0)" y1="67.5" x2="1147.499949" gradientUnits="userSpaceOnUse" y2="1282.499949" id="721d8cfa79"><stop stop-opacity="1" stop-color="rgb(94.898987%, 94.898987%, 94.898987%)" offset="0"/><stop stop-opacity="1" stop-color="rgb(94.789124%, 94.789124%, 94.789124%)" offset="0.0625"/><stop stop-opacity="1" stop-color="rgb(94.567871%, 94.567871%, 94.567871%)" offset="0.125"/><stop stop-opacity="1" stop-color="rgb(94.346619%, 94.346619%, 94.346619%)" offset="0.1875"/><stop stop-opacity="1" stop-color="rgb(94.126892%, 94.126892%, 94.126892%)" offset="0.25"/><stop stop-opacity="1" stop-color="rgb(93.90564%, 93.90564%, 93.90564%)" offset="0.3125"/><stop stop-opacity="1" stop-color="rgb(93.685913%, 93.685913%, 93.685913%)" offset="0.375"/><stop stop-opacity="1" stop-color="rgb(93.464661%, 93.464661%, 93.464661%)" offset="0.4375"/><stop stop-opacity="1" stop-color="rgb(93.243408%, 93.243408%, 93.243408%)" offset="0.444444"/><stop stop-opacity="1" stop-color="rgb(93.133545%, 93.133545%, 93.133545%)" offset="0.5"/><stop stop-opacity="1" stop-color="rgb(93.023682%, 93.023682%, 93.023682%)" offset="0.555556"/><stop stop-opacity="1" stop-color="rgb(92.913818%, 92.913818%, 92.913818%)" offset="0.5625"/><stop stop-opacity="1" stop-color="rgb(92.802429%, 92.802429%, 92.802429%)" offset="0.625"/><stop stop-opacity="1" stop-color="rgb(92.582703%, 92.582703%, 92.582703%)" offset="0.6875"/><stop stop-opacity="1" stop-color="rgb(92.36145%, 92.36145%, 92.36145%)" offset="0.75"/><stop stop-opacity="1" stop-color="rgb(92.141724%, 92.141724%, 92.141724%)" offset="0.8125"/><stop stop-opacity="1" stop-color="rgb(91.920471%, 91.920471%, 91.920471%)" offset="0.875"/><stop stop-opacity="1" stop-color="rgb(91.699219%, 91.699219%, 91.699219%)" offset="0.9375"/><stop stop-opacity="1" stop-color="rgb(91.479492%, 91.479492%, 91.479492%)" offset="1"/></linearGradient><clipPath id="272861bcbf"><path d="M 0.199219 0 L 809.800781 0 L 809.800781 523 L 0.199219 523 Z M 0.199219 0 " clip-rule="nonzero"/></clipPath><clipPath id="4668f0816a"><path d="M -194.683594 250.660156 L 830.59375 -138.671875 L 949.28125 173.886719 L -75.992188 563.21875 Z M -194.683594 250.660156 " clip-rule="nonzero"/></clipPath><clipPath id="79345d2f60"><path d="M -194.683594 250.660156 L 830.59375 -138.671875 L 949.28125 173.886719 L -75.992188 563.21875 Z M -194.683594 250.660156 " clip-rule="nonzero"/></clipPath><clipPath id="c26dcca234"><path d="M 48.34375 964.367188 L 64.089844 964.367188 L 64.089844 980.109375 L 48.34375 980.109375 Z M 48.34375 964.367188 " clip-rule="nonzero"/></clipPath><clipPath id="0eb02a2ee3"><path d="M 745.90625 44.28125 L 761.648438 44.28125 L 761.648438 60.023438 L 745.90625 60.023438 Z M 745.90625 44.28125 " clip-rule="nonzero"/></clipPath><clipPath id="d42433013f"><path d="M 0.199219 507 L 809.800781 507 L 809.800781 1012 L 0.199219 1012 Z M 0.199219 507 " clip-rule="nonzero"/></clipPath><clipPath id="fcfd8a7814"><path d="M -126.089844 895.414062 L 899.183594 506.078125 L 1017.875 818.636719 L -7.402344 1207.972656 Z M -126.089844 895.414062 " clip-rule="nonzero"/></clipPath><clipPath id="4f8da2debb"><path d="M -126.089844 895.414062 L 899.183594 506.078125 L 1017.875 818.636719 L -7.402344 1207.972656 Z M -126.089844 895.414062 " clip-rule="nonzero"/></clipPath></defs><g clip-path="url(#05f1945d38)"><path fill="#ffffff" d="M 0.199219 0 L 809.800781 0 L 809.800781 1012 L 0.199219 1012 Z M 0.199219 0 " fill-opacity="1" fill-rule="nonzero"/><path fill="url(#721d8cfa79)" d="M 0.199219 0 L 0.199219 1012 L 809.800781 1012 L 809.800781 0 Z M 0.199219 0 " fill-rule="nonzero"/></g><g clip-path="url(#272861bcbf)"><g clip-path="url(#4668f0816a)"><g clip-path="url(#79345d2f60)"><path fill="#ffd230" d="M -92.425781 519.941406 C 3.035156 532.105469 102.410156 495.296875 166.921875 423.882812 C 198.875 388.5 220.933594 347.136719 242.257812 307.140625 C 250.417969 291.820312 258.867188 275.996094 267.59375 261.085938 C 303.546875 199.640625 341.820312 163.816406 384.597656 151.542969 C 409.96875 144.269531 441.023438 149.289062 463.71875 164.324219 C 468.816406 167.671875 473.445312 171.574219 477.605469 176.035156 C 472.886719 177.335938 468.167969 178.855469 463.460938 180.621094 C 426.914062 194.304688 397.023438 228.984375 389.039062 266.917969 C 383.058594 295.367188 390.742188 322.515625 410.117188 341.386719 C 424.101562 355.023438 441.75 361.171875 458.515625 358.257812 C 461.574219 357.722656 464.554688 356.902344 467.457031 355.800781 C 482.761719 349.988281 492.464844 337.648438 497.53125 331.203125 C 521.273438 300.957031 544.863281 265.476562 548.894531 225.152344 C 554.074219 225.109375 559.316406 225.113281 564.613281 225.121094 C 582.765625 225.140625 601.53125 225.171875 620.5 223.050781 C 641.457031 220.667969 661.785156 215.71875 681.492188 208.199219 C 736.972656 187.128906 785.351562 146.96875 814.894531 95.429688 C 854.875 25.652344 859.394531 -63.34375 826.699219 -136.820312 L 774.519531 -113.59375 C 799.953125 -56.449219 796.4375 12.769531 765.347656 67.050781 C 734.257812 121.335938 676.316406 159.367188 614.152344 166.324219 C 598.398438 168.089844 582.027344 168.066406 564.699219 168.046875 C 556.550781 168.039062 548.328125 168.023438 540.070312 168.238281 C 531.058594 148.039062 515.777344 130.320312 495.300781 116.753906 C 458.679688 92.46875 410.253906 84.773438 368.851562 96.644531 C 311.28125 113.152344 262.035156 157.511719 218.296875 232.21875 C 208.996094 248.109375 200.285156 264.449219 191.855469 280.246094 C 171.246094 318.902344 151.777344 355.417969 124.527344 385.578125 C 72.355469 443.335938 -8.007812 473.101562 -85.238281 463.277344 Z M 452.617188 295.945312 C 451.375 297.527344 450.296875 298.863281 449.378906 299.902344 C 447.011719 297.484375 442.246094 291.472656 444.941406 278.679688 C 448.84375 260.101562 465.261719 241.027344 483.292969 234.179688 L 483.488281 234.105469 C 485.5 233.34375 487.539062 232.648438 489.609375 232.027344 C 483.496094 254.183594 468.066406 276.269531 452.617188 295.945312 Z M 452.617188 295.945312 " fill-opacity="1" fill-rule="nonzero"/></g></g></g><g clip-path="url(#c26dcca234)"><path fill="#173120" d="M 62.53125 964.367188 L 62.53125 977.4375 L 49.496094 964.367188 L 48.34375 965.472656 L 61.378906 978.550781 L 48.34375 978.550781 L 48.34375 980.109375 L 64.089844 980.109375 L 64.089844 964.367188 Z M 62.53125 964.367188 " fill-opacity="1" fill-rule="nonzero"/></g><g clip-path="url(#0eb02a2ee3)"><path fill="#173120" d="M 760.089844 44.28125 L 760.089844 57.355469 L 747.058594 44.28125 L 745.90625 45.390625 L 758.941406 58.464844 L 745.90625 58.464844 L 745.90625 60.023438 L 761.648438 60.023438 L 761.648438 44.28125 Z M 760.089844 44.28125 " fill-opacity="1" fill-rule="nonzero"/></g><g clip-path="url(#d42433013f)"><g clip-path="url(#fcfd8a7814)"><g clip-path="url(#4f8da2debb)"><path fill="#ffd230" d="M -23.835938 1164.695312 C 71.625 1176.859375 171.003906 1140.046875 235.511719 1068.632812 C 267.464844 1033.253906 289.523438 991.890625 310.847656 951.890625 C 319.007812 936.574219 327.460938 920.75 336.183594 905.839844 C 372.140625 844.390625 410.414062 808.570312 453.1875 796.296875 C 478.558594 789.023438 509.617188 794.039062 532.308594 809.074219 C 537.40625 812.421875 542.035156 816.324219 546.195312 820.785156 C 541.476562 822.089844 536.757812 823.605469 532.050781 825.371094 C 495.503906 839.058594 465.613281 873.734375 457.628906 911.671875 C 451.652344 940.117188 459.332031 967.269531 478.707031 986.140625 C 492.695312 999.777344 510.339844 1005.925781 527.105469 1003.011719 C 530.164062 1002.476562 533.144531 1001.65625 536.046875 1000.550781 C 551.351562 994.738281 561.054688 982.402344 566.121094 975.957031 C 589.863281 945.710938 613.453125 910.230469 617.488281 869.90625 C 622.664062 869.863281 627.910156 869.867188 633.203125 869.871094 C 651.355469 869.894531 670.125 869.925781 689.089844 867.800781 C 710.046875 865.417969 730.375 860.46875 750.082031 852.949219 C 805.566406 831.882812 853.941406 791.722656 883.488281 740.183594 C 923.46875 670.40625 927.988281 581.410156 895.289062 507.933594 L 843.109375 531.15625 C 868.546875 588.300781 865.027344 657.519531 833.9375 711.804688 C 802.847656 766.089844 744.90625 804.117188 682.742188 811.078125 C 666.988281 812.84375 650.617188 812.820312 633.292969 812.800781 C 625.140625 812.789062 616.917969 812.777344 608.660156 812.988281 C 599.648438 792.789062 584.367188 775.074219 563.890625 761.507812 C 527.269531 737.222656 478.84375 729.523438 437.441406 741.398438 C 379.871094 757.902344 330.625 802.261719 286.886719 876.96875 C 277.585938 892.863281 268.875 909.203125 260.445312 925 C 239.835938 963.65625 220.367188 1000.167969 193.117188 1030.328125 C 140.949219 1088.089844 60.582031 1117.851562 -16.648438 1108.03125 Z M 521.207031 940.695312 C 519.964844 942.277344 518.886719 943.613281 517.96875 944.65625 C 515.601562 942.234375 510.835938 936.226562 513.53125 923.429688 C 517.433594 904.855469 533.851562 885.78125 551.882812 878.933594 L 552.078125 878.859375 C 554.089844 878.09375 556.128906 877.402344 558.199219 876.777344 C 552.085938 898.933594 536.65625 921.023438 521.207031 940.695312 Z M 521.207031 940.695312 " fill-opacity="1" fill-rule="nonzero"/></g></g></g></svg>